<svg width="21" height="35" viewBox="0 0 21 35" fill="none" xmlns="http://www.w3.org/2000/svg">
<path d="M16.9355 2.33594H3.69856C2.95885 2.33594 2.33594 2.95885 2.33594 3.69856V18.8821C2.33594 19.6218 2.95885 20.2447 3.69856 20.2447H16.9355C17.6752 20.2447 18.2981 19.6218 18.2981 18.8821V3.69856C18.2981 2.95885 17.6752 2.33594 16.9355 2.33594ZM7.0078 14.4049H3.89322V13.2369H7.0078V14.4049ZM12.069 14.4049H8.56508V13.2369H12.069V14.4049ZM16.7408 14.4049H13.6263V13.2369H16.7408V14.4049Z" fill="#E79B38"/>
<path d="M18.4928 0H2.14127C0.973304 0 0 0.973304 0 2.14127V21.1402C0 22.2692 0.428254 23.3204 1.16796 24.1379L3.1535 26.3181L3.19243 26.3571C4.55506 27.8365 4.71079 27.9922 5.06118 27.9922H8.17575V33.1313L8.7208 35H11.9522L12.4972 33.1313V28.0311H15.6118C15.9622 28.0311 16.1179 27.8754 17.4805 26.396L19.505 24.1379C20.2447 23.3204 20.673 22.2303 20.673 21.1402V2.14127C20.634 0.973304 19.6607 0 18.4928 0ZM5.83982 26.8632V25.6952H8.17575V26.8632H5.83982ZM10.901 31.9244V29.5884H9.73304V31.9244H9.34372V25.6952H11.2903V31.9244H10.901ZM9.57731 33.871L9.34372 33.0923H11.2514L11.0178 33.871H9.57731ZM12.4583 25.6952H14.7942V26.8632H12.4583V25.6952ZM19.4661 21.1402C19.4661 21.9577 19.1546 22.7364 18.6096 23.3593L16.624 25.5395L16.5851 25.5784C16.3904 25.812 16.1568 26.0456 15.9622 26.2403V25.0723C15.9622 24.7608 15.6897 24.4883 15.3782 24.4883H5.25584C4.94438 24.4883 4.67186 24.7608 4.67186 25.0723V26.2403C4.4772 26.0067 4.2436 25.7731 4.04894 25.5784L2.02447 23.3593C1.47942 22.7364 1.16796 21.9577 1.16796 21.1402V2.14127C1.16796 1.59622 1.59622 1.16796 2.14127 1.16796H18.4928C19.0378 1.16796 19.4661 1.59622 19.4661 2.14127V21.1402Z" fill="#E79B38"/>
<path d="M6.01168 21.5864C5.46434 22.1337 5.29179 22.8486 5.62627 23.1831C5.96076 23.5176 6.67561 23.345 7.22295 22.7977C7.77029 22.2503 7.94284 21.5355 7.60835 21.201C7.27387 20.8665 6.55901 21.0391 6.01168 21.5864Z" fill="#E79B38"/>
<path d="M13.0212 21.5859C12.4739 22.1333 12.3013 22.8481 12.6358 23.1826C12.9703 23.5171 13.6851 23.3445 14.2325 22.7972C14.7798 22.2499 14.9524 21.535 14.6179 21.2005C14.2834 20.866 13.5685 21.0386 13.0212 21.5859Z" fill="#E79B38"/>
<path d="M9.51741 21.5859C8.97008 22.1333 8.79753 22.8481 9.13201 23.1826C9.46649 23.5171 10.1813 23.3445 10.7287 22.7972C11.276 22.2499 11.4486 21.535 11.1141 21.2005C10.7796 20.866 10.0647 21.0386 9.51741 21.5859Z" fill="#E79B38"/>
</svg>
