<svg width="58" height="58" viewBox="0 0 58 58" fill="none" xmlns="http://www.w3.org/2000/svg">
<rect width="58" height="58" rx="12" fill="#F8DEBD"/>
<path d="M35.9355 13.3359H22.6986C21.9589 13.3359 21.3359 13.9589 21.3359 14.6986V29.8821C21.3359 30.6218 21.9589 31.2447 22.6986 31.2447H35.9355C36.6752 31.2447 37.2981 30.6218 37.2981 29.8821V14.6986C37.2981 13.9589 36.6752 13.3359 35.9355 13.3359ZM26.0078 25.4049H22.8932V24.2369H26.0078V25.4049ZM31.069 25.4049H27.5651V24.2369H31.069V25.4049ZM35.7408 25.4049H32.6263V24.2369H35.7408V25.4049Z" fill="#E79B38"/>
<path d="M37.4928 11H21.1413C19.9733 11 19 11.9733 19 13.1413V32.1402C19 33.2692 19.4283 34.3204 20.168 35.1379L22.1535 37.3181L22.1924 37.3571C23.5551 38.8365 23.7108 38.9922 24.0612 38.9922H27.1758V44.1313L27.7208 46H30.9522L31.4972 44.1313V39.0311H34.6118C34.9622 39.0311 35.1179 38.8754 36.4805 37.396L38.505 35.1379C39.2447 34.3204 39.673 33.2303 39.673 32.1402V13.1413C39.634 11.9733 38.6607 11 37.4928 11ZM24.8398 37.8632V36.6952H27.1758V37.8632H24.8398ZM29.901 42.9244V40.5884H28.733V42.9244H28.3437V36.6952H30.2903V42.9244H29.901ZM28.5773 44.871L28.3437 44.0923H30.2514L30.0178 44.871H28.5773ZM31.4583 36.6952H33.7942V37.8632H31.4583V36.6952ZM38.4661 32.1402C38.4661 32.9577 38.1546 33.7364 37.6096 34.3593L35.624 36.5395L35.5851 36.5784C35.3904 36.812 35.1568 37.0456 34.9622 37.2403V36.0723C34.9622 35.7608 34.6897 35.4883 34.3782 35.4883H24.2558C23.9444 35.4883 23.6719 35.7608 23.6719 36.0723V37.2403C23.4772 37.0067 23.2436 36.7731 23.0489 36.5784L21.0245 34.3593C20.4794 33.7364 20.168 32.9577 20.168 32.1402V13.1413C20.168 12.5962 20.5962 12.168 21.1413 12.168H37.4928C38.0378 12.168 38.4661 12.5962 38.4661 13.1413V32.1402Z" fill="#E79B38"/>
<path d="M25.0117 32.5864C24.4643 33.1337 24.2918 33.8486 24.6263 34.1831C24.9608 34.5176 25.6756 34.345 26.2229 33.7977C26.7703 33.2503 26.9428 32.5355 26.6084 32.201C26.2739 31.8665 25.559 32.0391 25.0117 32.5864Z" fill="#E79B38"/>
<path d="M32.0212 32.5859C31.4739 33.1333 31.3013 33.8481 31.6358 34.1826C31.9703 34.5171 32.6851 34.3445 33.2325 33.7972C33.7798 33.2499 33.9524 32.535 33.6179 32.2005C33.2834 31.866 32.5685 32.0386 32.0212 32.5859Z" fill="#E79B38"/>
<path d="M28.5174 32.5859C27.9701 33.1333 27.7975 33.8481 28.132 34.1826C28.4665 34.5171 29.1813 34.3445 29.7287 33.7972C30.276 33.2499 30.4486 32.535 30.1141 32.2005C29.7796 31.866 29.0647 32.0386 28.5174 32.5859Z" fill="#E79B38"/>
</svg>
